<svg id="svg" version="1.1" xmlns="http://www.w3.org/2000/svg" xmlns:xlink="http://www.w3.org/1999/xlink" width="400"
	height="400" viewBox="0, 0, 400,400">
	<title>versa-logo</title>
	<g id="svgg">
		<path id="path0"
			d="M55.216 92.485 C 55.317 92.648,77.144 148.063,103.721 215.629 C 130.298 283.195,152.129 338.696,152.235 338.965 C 152.384 339.344,155.760 339.453,167.275 339.453 L 182.122 339.453 181.901 338.606 C 181.779 338.141,159.928 282.506,133.343 214.974 L 85.007 92.188 70.019 92.188 C 61.776 92.188,55.115 92.321,55.216 92.485 M97.372 92.480 C 97.456 92.642,119.303 148.278,145.921 216.116 L 194.317 339.458 220.842 339.358 L 247.367 339.258 295.954 216.602 C 322.676 149.141,344.645 93.550,344.773 93.066 L 345.007 92.188 320.814 92.188 L 296.621 92.188 268.748 169.238 C 253.418 211.616,236.630 258.022,231.441 272.362 L 222.007 298.434 184.734 195.319 L 147.461 92.204 122.340 92.196 C 108.524 92.191,97.288 92.319,97.372 92.480 M259.227 92.501 C 258.743 93.284,209.765 229.077,209.764 229.639 C 209.763 230.403,221.986 264.436,222.266 264.446 C 222.410 264.451,276.434 115.557,283.669 95.215 L 284.746 92.188 272.083 92.188 C 265.119 92.188,259.334 92.328,259.227 92.501 "
			stroke="none" fill="#645cfc" fill-rule="evenodd"></path>
		<path id="path1" d="" stroke="none" fill="#685cfc" fill-rule="evenodd"></path>
		<path id="path2" d="" stroke="none" fill="#685cfc" fill-rule="evenodd"></path>
		<path id="path3" d="" stroke="none" fill="#685cfc" fill-rule="evenodd"></path>
		<path id="path4" d="" stroke="none" fill="#685cfc" fill-rule="evenodd"></path>
	</g>
</svg>