<svg id="Camada_1" data-name="Camada 1" xmlns="http://www.w3.org/2000/svg" viewBox="0 0 1715 322"><defs><style>.cls-1{fill:#605efd;}.cls-2{font-size:189.37px;letter-spacing:-0.06em;}.cls-2,.cls-4{fill:#fff;font-family:Montserrat-SemiBold, Montserrat;font-weight:600;}.cls-3{letter-spacing:0em;}.cls-4{font-size:35px;letter-spacing:1.49em;}.cls-5{letter-spacing:1.5em;}.cls-6{fill:#aa92fb;}.cls-7{fill:#b39dfc;}.cls-8{fill:#bba7fc;}.cls-9{fill:#c4b2fc;}.cls-10{fill:#ccbefc;}.cls-11{fill:#d5c9fd;}</style></defs><title>banner_versacord</title><rect class="cls-1" x="0.35" y="0.09" width="1714.65" height="322.37"/><text class="cls-2" transform="translate(595.8 203.74)">V<tspan class="cls-3" x="124.22" y="0">ersa</tspan></text><text class="cls-4" transform="translate(730.37 257.17)">C<tspan class="cls-5" x="76.3" y="0">ORD</tspan></text><path class="cls-6" d="M1713.92,52.23c-.09.71-.75.6-1.17.74a100,100,0,0,0-25,12.13,94.4,94.4,0,0,0-24.43,24c-9,12.75-14.9,26.91-19.11,41.85a211.62,211.62,0,0,0-5.22,24.26q-1.35,8.49-2.13,17.05c-.58,6.25-1,12.51-1.28,18.78a166,166,0,0,1-2.2,21.45c-2.06,11.61-5.53,22.69-12,32.65a67.58,67.58,0,0,1-23.92,22c-10.39,5.9-21.59,9.72-33.05,12.88-7.3,2-14.76,3.42-21.92,6-10.25,3.68-20.14,8.07-29.12,14.34A69.23,69.23,0,0,0,1493,321.82l-.13.21c-.17.31-.39.66-.76.47s0-.6.1-.82c1-1.56,1.95-3.13,3-4.63a75.3,75.3,0,0,1,25.39-22.11,130.81,130.81,0,0,1,32.28-12.77,259,259,0,0,0,26.65-7.67c9.87-3.59,19.23-8.13,27.49-14.7a64.25,64.25,0,0,0,19-24.94,100.81,100.81,0,0,0,7.35-27.67c.59-4.61,1-9.22,1.26-13.87.33-6.47.68-12.95,1.26-19.41a239.85,239.85,0,0,1,7.79-44,153.67,153.67,0,0,1,8.63-23.3,112.08,112.08,0,0,1,14.88-23.82,93.57,93.57,0,0,1,26-21.95,111.32,111.32,0,0,1,18.44-8.29,3.35,3.35,0,0,0,.52-.3Z"/><path class="cls-7" d="M1519.22,322.46c1.74-1.79,3.39-3.67,5.23-5.36a86.78,86.78,0,0,1,19.43-13.1,150.65,150.65,0,0,1,21.17-8.6c5.7-1.89,11.6-2.94,17.36-4.53,10.56-2.92,20.95-6.27,30.7-11.35a74.32,74.32,0,0,0,19.06-13.81,66.79,66.79,0,0,0,14.76-23.59,107.06,107.06,0,0,0,5.83-24.72c.66-5.36,1-10.73,1.28-16.12.3-6.73.76-13.45,1.49-20.14a234,234,0,0,1,8.08-42.3c4.6-15.32,11.1-29.73,21-42.46a92.86,92.86,0,0,1,28.32-24.52c.28-.16.65-.68.93-.29s-.23.69-.58.89a98,98,0,0,0-13.34,9.17,93.84,93.84,0,0,0-12.64,12.57,111.6,111.6,0,0,0-15.3,24.58,158.26,158.26,0,0,0-9.42,26.73,232.9,232.9,0,0,0-5.22,26.94c-.69,5-1.22,10.11-1.62,15.2-.43,5.59-.7,11.19-1,16.79a142.09,142.09,0,0,1-4.43,29.83c-2.83,10.35-7.24,19.9-14.13,28.18a69.76,69.76,0,0,1-19.65,16.07c-11,6.21-22.87,10.13-35,13.35-6.67,1.77-13.44,3.14-20,5.48-11.86,4.27-23.18,9.5-33.12,17.39a74.15,74.15,0,0,0-7.78,7.14C1520,322.46,1520,322.45,1519.22,322.46Z"/><path class="cls-8" d="M1551.1,322.47a79.68,79.68,0,0,1,7.24-4.59,138.94,138.94,0,0,1,24.71-10.83c5.71-1.95,11.65-3.06,17.46-4.62,10.91-2.92,21.62-6.35,31.69-11.55a73.06,73.06,0,0,0,20.91-15.68,67.18,67.18,0,0,0,13-21.62,105.13,105.13,0,0,0,5.79-24c.62-4.77,1-9.54,1.27-14.35.32-6.43.67-12.86,1.28-19.27a245.28,245.28,0,0,1,7-40.7,148.2,148.2,0,0,1,12.82-32.93,101.56,101.56,0,0,1,15.48-21.58c1.32-1.4,2.61-2.81,4.07-4.16.4.87-.26,1.21-.66,1.61a103.56,103.56,0,0,0-14,17.37,128.19,128.19,0,0,0-12.18,24.76A185.56,185.56,0,0,0,1679,169c-1.22,6.14-2.17,12.33-2.89,18.56-.78,6.77-1.46,13.54-1.76,20.35-.19,4.3-.39,8.61-.75,12.9-1.23,14.72-3.87,29.1-11,42.28a64.94,64.94,0,0,1-16.12,19.4c-8,6.58-17.22,11.1-26.87,14.74-9.81,3.71-20,6.21-30.12,8.74a123.85,123.85,0,0,0-20.09,7.17,108.05,108.05,0,0,0-16.53,9C1552.29,322.53,1552.28,322.51,1551.1,322.47Z"/><path class="cls-9" d="M1713.81,137.82a2.45,2.45,0,0,1-.28,2,142,142,0,0,0-10.13,24.59,201.15,201.15,0,0,0-5.86,24.35c-1.14,6.33-2,12.69-2.71,19.08-.48,4.48-.82,9-1.1,13.49s-.39,9.19-.75,13.77c-.83,10.85-2.36,21.58-5.93,31.93a67.67,67.67,0,0,1-31.66,38.45c-10.53,6-21.84,10-33.5,13.05-5.09,1.34-10.2,2.62-15.31,3.89a4.4,4.4,0,0,1-2.18-.09c1.5-.44,3-.94,4.51-1.29,8.36-1.94,16.66-4.07,24.79-6.82,9.4-3.18,18.44-7.11,26.68-12.73a64.79,64.79,0,0,0,22.82-26.84,94.42,94.42,0,0,0,7.31-24.83,145.81,145.81,0,0,0,1.78-16.68c.19-4.51.39-9,.76-13.52.46-5.61,1-11.22,1.66-16.82.87-6.87,1.92-13.72,3.34-20.5a169.33,169.33,0,0,1,10.34-33.5A112.93,112.93,0,0,1,1713.81,137.82Z"/><path class="cls-10" d="M1713.72,215.6a37.82,37.82,0,0,1,0,6.73c-.3,2.35-.44,4.73-.59,7.11-.31,5.08-.55,10.18-.83,15.27a145,145,0,0,1-2.47,20.22c-2.49,12.54-6.79,24.33-14.79,34.5a68.62,68.62,0,0,1-20.68,17.47c-3.37,1.88-6.82,3.59-10.34,5.16a3.9,3.9,0,0,1-2.72.39l4.44-2A80.78,80.78,0,0,0,1686,307.8a63.56,63.56,0,0,0,14.39-17.9,87.65,87.65,0,0,0,8.75-25.64,145,145,0,0,0,2.26-18c.29-4.58.4-9.18.75-13.76.4-5.11.69-10.23,1.44-15.31C1713.71,216.67,1713.69,216.13,1713.72,215.6Z"/><path class="cls-11" d="M1713.77,314.66c-.12,1.75-5.83,7.74-7.41,7.82C1708.91,319.81,1711.58,317.45,1713.77,314.66Z"/><path class="cls-6" d="M1715,51.12c-.09.71-.74.6-1.16.74a99.69,99.69,0,0,0-25,12.13,94.21,94.21,0,0,0-24.42,24c-9,12.75-14.91,26.91-19.11,41.85a211.65,211.65,0,0,0-5.23,24.26c-.9,5.66-1.59,11.34-2.12,17q-.87,9.38-1.29,18.78a166,166,0,0,1-2.2,21.45c-2.05,11.61-5.53,22.69-12,32.65a67.67,67.67,0,0,1-23.92,22c-10.39,5.9-21.59,9.72-33.06,12.88-7.3,2-14.76,3.42-21.91,6-10.26,3.68-20.15,8.07-29.12,14.34A69.34,69.34,0,0,0,1494,320.7c0,.08-.09.15-.13.22-.16.31-.39.66-.76.47s0-.6.11-.82c1-1.56,1.94-3.13,3-4.63a75.4,75.4,0,0,1,25.39-22.11,131,131,0,0,1,32.28-12.77,259.2,259.2,0,0,0,26.66-7.67c9.86-3.59,19.22-8.13,27.49-14.7a64.32,64.32,0,0,0,19-24.94,100.1,100.1,0,0,0,7.35-27.67q.9-6.92,1.26-13.87c.34-6.47.68-13,1.27-19.41a238.17,238.17,0,0,1,7.79-44,153.63,153.63,0,0,1,8.62-23.3,112.08,112.08,0,0,1,14.88-23.82,93.71,93.71,0,0,1,26-21.95,111.32,111.32,0,0,1,18.44-8.29,4,4,0,0,0,.53-.3Z"/><path class="cls-6" d="M1.08,270.32c.09-.7.75-.6,1.17-.74a99.59,99.59,0,0,0,25-12.12,94.56,94.56,0,0,0,24.43-24c9-12.75,14.9-26.92,19.11-41.85a211.78,211.78,0,0,0,5.22-24.27q1.35-8.48,2.13-17c.58-6.26,1-12.51,1.28-18.79A166.23,166.23,0,0,1,81.66,110c2.06-11.6,5.53-22.68,12-32.65a67.77,67.77,0,0,1,23.92-22C128,49.5,139.2,45.67,150.66,42.51c7.3-2,14.76-3.41,21.92-6,10.25-3.69,20.14-8.07,29.12-14.34A69.23,69.23,0,0,0,222.05.74c0-.07.09-.14.13-.22.17-.3.39-.66.76-.46s0,.6-.1.81c-1,1.56-2,3.14-3,4.64a75.27,75.27,0,0,1-25.39,22.1,130.81,130.81,0,0,1-32.28,12.77,259.08,259.08,0,0,0-26.65,7.68c-9.87,3.59-19.23,8.13-27.49,14.69A64.4,64.4,0,0,0,89,87.69a100.87,100.87,0,0,0-7.35,27.68q-.89,6.9-1.26,13.86c-.33,6.48-.68,13-1.26,19.41a240.1,240.1,0,0,1-7.79,44A153.67,153.67,0,0,1,62.68,216,112,112,0,0,1,47.8,239.78a93.6,93.6,0,0,1-26,22A112.15,112.15,0,0,1,3.37,270a2.65,2.65,0,0,0-.52.29Z"/><path class="cls-7" d="M195.78.09c-1.74,1.79-3.39,3.68-5.23,5.36a86.82,86.82,0,0,1-19.43,13.11A151.87,151.87,0,0,1,150,27.16c-5.7,1.88-11.6,2.93-17.36,4.53C122,34.61,111.64,38,101.89,43A74.6,74.6,0,0,0,82.83,56.85,66.62,66.62,0,0,0,68.07,80.44a107,107,0,0,0-5.83,24.71c-.66,5.36-1,10.73-1.28,16.13-.3,6.72-.76,13.44-1.49,20.14a233.88,233.88,0,0,1-8.08,42.29c-4.6,15.32-11.1,29.73-21,42.46A92.86,92.86,0,0,1,2.11,250.69c-.28.16-.65.69-.93.3s.23-.69.58-.9a97.91,97.91,0,0,0,13.34-9.16,93.91,93.91,0,0,0,12.64-12.58A111.37,111.37,0,0,0,43,203.77,157.65,157.65,0,0,0,52.46,177a232.32,232.32,0,0,0,5.22-26.93c.69-5.05,1.22-10.12,1.62-15.21.43-5.59.7-11.18,1-16.78a142,142,0,0,1,4.43-29.83C67.58,77.94,72,68.39,78.88,60.1A69.93,69.93,0,0,1,98.53,44c11-6.2,22.87-10.12,35-13.35,6.67-1.77,13.44-3.14,20-5.48,11.86-4.26,23.18-9.5,33.12-17.39A73,73,0,0,0,194.41.68C195,.1,195,.11,195.78.09Z"/><path class="cls-8" d="M163.9.09a84.32,84.32,0,0,1-7.24,4.59A138.18,138.18,0,0,1,132,15.5c-5.71,2-11.65,3.07-17.46,4.62C103.58,23,92.87,26.48,82.8,31.68A73.06,73.06,0,0,0,61.89,47.36,67,67,0,0,0,48.9,69a104.93,104.93,0,0,0-5.79,24q-.93,7.16-1.27,14.35c-.32,6.43-.67,12.87-1.28,19.27a245.4,245.4,0,0,1-7,40.71,148.58,148.58,0,0,1-12.82,32.93A101.56,101.56,0,0,1,5.29,221.77c-1.32,1.39-2.61,2.8-4.07,4.16-.4-.88.26-1.22.66-1.62a102.76,102.76,0,0,0,14-17.37,128.11,128.11,0,0,0,12.18-24.75A185.88,185.88,0,0,0,36,153.57c1.22-6.15,2.17-12.34,2.89-18.56.78-6.77,1.46-13.54,1.76-20.35.19-4.3.39-8.61.75-12.9,1.23-14.73,3.87-29.11,11-42.29A64.9,64.9,0,0,1,68.56,40.08c8-6.59,17.22-11.1,26.87-14.75,9.81-3.7,20-6.2,30.12-8.73a124.8,124.8,0,0,0,20.09-7.17,108.11,108.11,0,0,0,16.53-9C162.71,0,162.72,0,163.9.09Z"/><path class="cls-9" d="M1.19,184.74a2.45,2.45,0,0,1,.28-2A142.33,142.33,0,0,0,11.6,158.13a201.31,201.31,0,0,0,5.86-24.36c1.14-6.32,2-12.69,2.71-19.07.48-4.49.82-9,1.1-13.49S21.66,92,22,87.44C22.85,76.58,24.38,65.85,28,55.5A67.69,67.69,0,0,1,59.61,17.06c10.53-6,21.84-10,33.5-13,5.09-1.35,10.2-2.63,15.31-3.9a4.29,4.29,0,0,1,2.18.1c-1.5.43-3,.93-4.51,1.29C97.73,3.44,89.43,5.57,81.3,8.32A108,108,0,0,0,54.62,21.05,64.67,64.67,0,0,0,31.8,47.89a94.2,94.2,0,0,0-7.31,24.83,145.64,145.64,0,0,0-1.78,16.67c-.19,4.51-.39,9-.76,13.52-.46,5.62-1,11.23-1.66,16.82-.87,6.88-1.92,13.72-3.34,20.5a169.12,169.12,0,0,1-10.34,33.5A112,112,0,0,1,1.19,184.74Z"/><path class="cls-10" d="M1.28,107a37.82,37.82,0,0,1,0-6.73c.3-2.36.44-4.74.59-7.11.31-5.09.55-10.18.83-15.27A144.63,144.63,0,0,1,5.13,57.63c2.49-12.54,6.79-24.33,14.79-34.5A68.47,68.47,0,0,1,40.6,5.66C44,3.77,47.42,2.07,50.94.5A3.9,3.9,0,0,1,53.66.11l-4.44,2A80.82,80.82,0,0,0,29,14.76a63.42,63.42,0,0,0-14.39,17.9A87.55,87.55,0,0,0,5.82,58.3a144.82,144.82,0,0,0-2.26,18c-.29,4.59-.4,9.18-.75,13.76-.4,5.11-.69,10.24-1.44,15.32C1.29,105.89,1.31,106.42,1.28,107Z"/><path class="cls-11" d="M1.23,7.9C1.35,6.14,7.06.16,8.64.07,6.09,2.75,3.42,5.11,1.23,7.9Z"/><path class="cls-6" d="M0,271.43c.09-.7.74-.6,1.16-.73a100,100,0,0,0,25.05-12.13,94.37,94.37,0,0,0,24.42-24c9-12.75,14.91-26.92,19.11-41.85A211.82,211.82,0,0,0,75,168.43c.9-5.65,1.59-11.34,2.12-17,.58-6.26,1-12.51,1.29-18.79a166.23,166.23,0,0,1,2.2-21.45c2-11.6,5.53-22.68,12-32.65a67.85,67.85,0,0,1,23.92-22c10.39-5.89,21.59-9.72,33.06-12.88,7.3-2,14.76-3.41,21.91-6,10.26-3.68,20.15-8.07,29.12-14.34A69.26,69.26,0,0,0,221,1.85c0-.07.09-.14.13-.22.16-.3.39-.66.76-.46s0,.6-.11.81c-1,1.56-1.94,3.14-3,4.64a75.37,75.37,0,0,1-25.39,22.1,131,131,0,0,1-32.28,12.77,259.26,259.26,0,0,0-26.66,7.68c-9.86,3.59-19.22,8.13-27.49,14.69a64.47,64.47,0,0,0-19,24.94,100.17,100.17,0,0,0-7.35,27.68c-.6,4.61-1,9.22-1.26,13.86-.34,6.48-.68,13-1.27,19.42a238.32,238.32,0,0,1-7.79,44,153.63,153.63,0,0,1-8.62,23.3,112,112,0,0,1-14.88,23.81,93.74,93.74,0,0,1-26,22,112.15,112.15,0,0,1-18.44,8.29,3.06,3.06,0,0,0-.53.29Z"/></svg>